<svg width="377" height="211" viewBox="0 0 377 211" fill="none" xmlns="http://www.w3.org/2000/svg">
<rect width="377" height="211" fill="#434343"/>
<path d="M236.626 108.509C236.626 110.522 235.418 112.339 233.561 113.119L211.879 122.223C208.978 123.441 205.773 121.311 205.773 118.165V118.165C205.773 116.33 206.912 114.687 208.631 114.043L225.902 107.576C225.981 107.546 226.053 107.633 226.009 107.705V107.705C225.962 107.782 225.844 107.749 225.844 107.659V107.144C225.844 107.057 225.958 107.024 226.004 107.097V107.097C226.049 107.167 225.979 107.254 225.901 107.225L208.64 100.779C206.916 100.136 205.773 98.4887 205.773 96.6484V96.6484C205.773 93.4965 208.984 91.3623 211.89 92.5826L233.561 101.682C235.418 102.462 236.626 104.279 236.626 106.292V108.509Z" fill="#CFCFCF"/>
<path d="M194.439 79.3184C197.262 79.3184 199.315 81.9975 198.582 84.7231L186.829 128.388C186.324 130.261 184.626 131.563 182.686 131.563V131.563C179.864 131.563 177.81 128.884 178.544 126.158L190.297 82.4932C190.801 80.6201 192.5 79.3184 194.439 79.3184V79.3184Z" fill="#CFCFCF"/>
<path d="M143.564 113.119C141.708 112.339 140.5 110.522 140.5 108.509V106.292C140.5 104.279 141.708 102.462 143.564 101.682L165.235 92.5826C168.141 91.3623 171.352 93.4965 171.352 96.6484V96.6484C171.352 98.4887 170.209 100.136 168.485 100.779L151.245 107.218C151.164 107.248 151.092 107.156 151.14 107.084V107.084C151.19 107.012 151.303 107.047 151.303 107.134V107.669C151.303 107.76 151.184 107.795 151.135 107.719V107.719C151.087 107.645 151.161 107.552 151.243 107.583L168.494 114.043C170.213 114.687 171.352 116.33 171.352 118.165V118.165C171.352 121.311 168.148 123.441 165.247 122.223L143.564 113.119Z" fill="#CFCFCF"/>
</svg>
