<svg width="377" height="211" viewBox="0 0 377 211" fill="none" xmlns="http://www.w3.org/2000/svg">
<rect width="377" height="211" fill="#464FB8"/>
<path d="M170.978 81.7421C176.118 78.7821 182.412 78.6897 187.624 81.4647L188.125 81.7421C190.21 82.9429 192.092 84.8747 194.661 87.4374C197.069 89.8391 198.922 91.6395 200.137 93.5702L200.371 93.9589L200.65 94.4589C203.347 99.4975 203.346 105.551 200.65 110.59L200.371 111.091C199.655 112.327 198.753 113.4 197.724 114.5L197.56 114.665C195.847 116.318 193.12 116.353 191.362 114.708C189.549 113.009 189.456 110.161 191.154 108.348L191.71 107.735C192.183 107.194 192.426 106.851 192.582 106.582C194.035 104.071 194.035 100.978 192.582 98.4667C192.121 97.6699 191.283 96.7805 188.305 93.8094C185.326 90.8382 184.433 90.002 183.633 89.5409C181.108 88.087 177.995 88.0867 175.47 89.5409V89.5419C174.669 90.0029 173.777 90.8386 170.799 93.8094L158.867 105.711C155.888 108.682 155.051 109.571 154.59 110.368C153.182 112.801 153.138 115.779 154.458 118.246L154.59 118.483C155.051 119.28 155.888 120.17 158.867 123.141L160.741 124.997C162.286 126.507 162.938 127.063 163.539 127.409C166.064 128.863 169.177 128.863 171.702 127.409L172.002 127.219C172.336 126.989 172.785 126.625 173.476 125.982C175.294 124.289 178.141 124.39 179.835 126.209C181.529 128.028 181.427 130.876 179.608 132.569C178.507 133.595 177.432 134.495 176.194 135.208H176.193C170.888 138.263 164.352 138.263 159.047 135.208C157.483 134.307 156.034 132.996 154.323 131.315L152.512 129.514C149.943 126.952 148.007 125.073 146.802 122.991L146.801 122.992C143.733 117.692 143.733 111.16 146.801 105.86L147.035 105.472C148.25 103.541 150.104 101.741 152.512 99.3387L164.442 87.4374C167.011 84.8748 168.893 82.9429 170.978 81.7421ZM200.808 75.7919C205.947 72.8321 212.24 72.7388 217.452 75.5135L217.953 75.7919C220.038 76.9927 221.92 78.9235 224.489 81.4862C227.057 84.0476 228.993 85.926 230.198 88.0077H230.199C233.171 93.1422 233.264 99.4328 230.477 104.64L230.199 105.14C228.995 107.221 227.057 109.099 224.489 111.661L212.558 123.562C209.988 126.125 208.107 128.057 206.021 129.258C200.882 132.218 194.588 132.31 189.376 129.535L188.875 129.258C186.79 128.057 184.908 126.125 182.339 123.562C179.77 121.001 177.834 119.123 176.629 117.041C173.561 111.741 173.561 105.209 176.629 99.9091L176.906 99.453C177.572 98.4045 178.375 97.4622 179.276 96.4999C180.975 94.6858 183.824 94.5931 185.638 96.2919C187.451 97.9906 187.545 100.838 185.847 102.652C185.202 103.341 184.837 103.788 184.607 104.12L184.418 104.418C182.965 106.929 182.965 110.022 184.418 112.533C184.764 113.131 185.321 113.78 186.835 115.321L188.695 117.19L190.569 119.046C192.115 120.556 192.767 121.113 193.367 121.459H193.366C195.891 122.913 199.005 122.913 201.53 121.459C202.331 120.998 203.223 120.162 206.202 117.19L218.133 105.289C221.112 102.317 221.948 101.428 222.409 100.632H222.41C223.864 98.1206 223.863 95.0277 222.41 92.5165L222.409 92.5155C221.948 91.7193 221.112 90.8299 218.133 87.8583C215.154 84.8872 214.261 84.0518 213.461 83.5907V83.5897C211.014 82.1811 208.017 82.138 205.536 83.4589L205.298 83.5907C204.937 83.7985 204.446 84.1592 203.524 85.0175C201.706 86.7108 198.859 86.6094 197.165 84.7909C195.471 82.972 195.573 80.1241 197.392 78.4305C198.493 77.4051 199.568 76.5044 200.808 75.7909V75.7919Z" fill="#C5CAFF"/>
</svg>
