<svg width="377" height="211" viewBox="0 0 377 211" fill="none" xmlns="http://www.w3.org/2000/svg">
<rect width="377" height="211" fill="#873EFF"/>
<path fill-rule="evenodd" clip-rule="evenodd" d="M175.382 90C172.361 90 170.394 90.9802 168.637 94.271L160.627 109.325V95.9514C160.627 91.9605 158.73 90 155.217 90C151.704 90 150.229 91.1903 148.472 94.5511L140.884 109.325V96.0914C140.884 91.8204 139.127 90 134.842 90H126.129C122.827 90 121 91.5404 121 94.341C121 97.1417 122.757 98.8221 125.989 98.8221H129.572V115.696C129.572 120.457 132.804 123.258 137.441 123.258C142.078 123.258 144.186 121.437 146.505 117.166L151.564 107.714V115.696C151.564 120.387 154.655 123.258 159.363 123.258C164.07 123.258 165.827 121.647 168.497 117.166L180.16 97.5618C182.69 93.2908 180.933 90 175.312 90C175.312 90 175.312 90 175.382 90Z" fill="white"/>
<path fill-rule="evenodd" clip-rule="evenodd" d="M197.304 90C187.748 90 180.511 97.0717 180.511 106.664C180.511 116.256 187.819 123.258 197.304 123.258C206.789 123.258 214.026 116.186 214.096 106.664C214.096 97.0717 206.789 90 197.304 90ZM197.304 113.035C193.721 113.035 191.261 110.375 191.261 106.664C191.261 102.953 193.721 100.222 197.304 100.222C200.887 100.222 203.346 102.953 203.346 106.664C203.346 110.375 200.958 113.035 197.304 113.035Z" fill="white"/>
<path fill-rule="evenodd" clip-rule="evenodd" d="M233.208 90C223.722 90 216.415 97.0717 216.415 106.664C216.415 116.256 223.722 123.258 233.208 123.258C242.693 123.258 250 116.186 250 106.664C250 97.1417 242.693 90 233.208 90ZM233.208 113.035C229.554 113.035 227.235 110.375 227.235 106.664C227.235 102.953 229.624 100.222 233.208 100.222C236.791 100.222 239.25 102.953 239.25 106.664C239.25 110.375 236.861 113.035 233.208 113.035Z" fill="white"/>
</svg>
